<svg version="1.1" xmlns="http://www.w3.org/2000/svg" style="display: block;" viewBox="0 0 1040 1040" width="260" height="260" preserveAspectRatio="none">
<defs>
	<linearGradient id="Gradient1" gradientUnits="userSpaceOnUse" x1="363.825" y1="649.504" x2="319.435" y2="382.753">
		<stop class="stop0" offset="0" stop-opacity="1" stop-color="rgb(17,117,254)"/>
		<stop class="stop1" offset="1" stop-opacity="1" stop-color="rgb(51,143,255)"/>
	</linearGradient>
</defs>
<path transform="translate(0,0)" fill="rgb(37,131,255)" d="M 170.278 0 L 869.7 0 C 875.047 2.89707 902.347 6.73015 911.792 9.95622 C 966.817 29.3199 1010.14 72.5185 1029.66 127.487 C 1032.49 135.86 1034.79 144.4 1036.56 153.058 C 1037.48 157.554 1038.45 165.382 1040 169.31 L 1040 872.382 L 1039.72 873.211 C 1035.99 884.647 1034.78 898.059 1030.29 911.179 C 1014.26 957.677 980.953 996.226 937.275 1018.84 C 919.376 1028.09 901.378 1034 881.671 1037.88 C 879.244 1038.36 876.829 1039.16 874.502 1040 L 163.548 1040 C 160.115 1038.65 152.073 1036.86 148.06 1035.73 C 134.222 1031.82 122.295 1028.42 109.24 1022.1 C 62.8018 999.583 26.8413 959.672 9.97712 910.849 C 5.44049 897.716 4.33498 881.605 0.291416 870.457 L 0 869.676 L 0 170.365 C 1.52443 167.85 2.47452 159.623 3.0537 156.139 C 13.6721 92.2517 62.7238 32.3242 125.155 11.2361 C 132.811 8.68094 140.612 6.58777 148.519 4.96789 C 154.616 3.72231 165.022 2.47721 170.278 0 z"/>
<path transform="translate(0,0)" fill="rgb(254,254,254)" d="M 218.518 260.371 C 227.274 259.046 274.066 259.882 284.91 259.891 L 435.294 259.949 L 691.177 260.029 L 771.335 259.954 C 806.685 259.88 859.186 251.855 865.557 301.695 C 868.139 321.896 866.829 345.564 866.817 366.179 L 866.752 484.445 L 866.803 646.134 C 866.835 671.457 866.682 697.044 866.793 722.348 C 866.929 753.4 856.197 775.338 822.237 779.668 C 813.934 780.491 798.94 780.115 790.185 780.105 L 734.875 780.021 L 559.538 779.975 L 331.517 779.936 L 263.944 780.007 C 241.706 780.106 210.922 783.869 192.795 769.887 C 183.753 762.912 174.953 749.273 174.172 737.67 C 172.598 714.266 173.356 690.327 173.384 666.818 L 173.336 536.498 L 173.297 385.589 C 173.27 362.531 173.385 339.236 173.319 316.201 C 173.23 285.421 185.232 263.873 218.518 260.371 z"/>
<path transform="translate(0,0)" fill="url(#Gradient1)" d="M 247.022 595.619 C 256.792 560.077 303.815 564.303 316.262 550.73 C 316.389 544.209 301.248 529.437 297.838 520.779 C 289.628 499.936 293.734 479.851 292.143 458.835 C 288.918 416.224 312.776 374.514 360.794 376.092 C 377.874 376.676 394.024 384.013 405.699 396.492 C 431.308 423.918 422.992 459.69 424.012 493.825 C 424.971 515.124 413.903 529.269 402.193 545.69 C 400.735 547.735 399.376 550.971 401.81 552.221 C 426.912 565.112 468.838 566.069 470.666 603.426 C 470.957 609.382 472.224 627.436 469.055 633.513 C 459.269 636.597 362.964 635.42 347.844 635.429 L 287.512 635.493 C 275.574 635.535 261.06 635.992 249.433 635.152 C 248.036 634.458 247.981 634.148 246.897 632.974 C 244.623 625.859 245.282 603.138 247.022 595.619 z"/>
<path transform="translate(0,0)" fill="rgb(37,131,255)" d="M 247.022 595.619 C 249.755 605.366 246.916 625.264 249.433 635.152 C 248.036 634.458 247.981 634.148 246.897 632.974 C 244.623 625.859 245.282 603.138 247.022 595.619 z"/>
<path transform="translate(0,0)" fill="rgb(37,131,255)" d="M 555.585 578.2 C 626.433 575.526 700.384 578.574 771.416 578.356 C 780.148 578.329 784.727 598.996 773.413 605.81 C 764.963 607.232 747.135 606.804 737.758 606.817 L 677.297 606.848 L 603.507 606.85 C 589.511 606.839 575.692 607.112 561.669 606.189 C 550.24 605.437 547.761 600.641 549.109 589.688 C 549.818 583.923 550.922 581.589 555.585 578.2 z"/>
<path transform="translate(0,0)" fill="rgb(37,131,255)" d="M 559.22 433.496 C 582.16 432.591 764.881 431.357 773.423 434.394 C 775.847 435.256 777.481 437.343 778.481 439.625 C 780.591 444.44 780.561 451.234 778.51 456.067 C 776.961 459.718 774.272 460.644 770.832 462.009 C 704.157 463.188 636.843 461.403 570.11 462.09 C 565.346 462.139 557.474 462.054 553.247 459.945 C 546.498 453.058 546.117 436.213 559.22 433.496 z"/>
<path transform="translate(0,0)" fill="rgb(37,131,255)" d="M 572.623 505.503 L 695.345 505.356 C 718.498 505.294 740.826 505.179 764.677 505.572 C 780.595 505.834 784.041 517.611 776.496 531.219 C 774.452 534.907 762.718 534.363 758.11 534.382 C 732.408 534.385 559.488 536.615 553.651 532.177 C 550.492 529.775 549.34 525.604 549.093 521.816 C 548.854 518.15 549.11 511.723 551.811 508.957 C 556.347 504.312 566.642 505.516 572.623 505.503 z"/>
</svg>