<svg version="1.1" xmlns="http://www.w3.org/2000/svg" style="display: block;" viewBox="0 0 1040 1040" width="260" height="260" preserveAspectRatio="none">
<defs>
	<linearGradient id="Gradient1" gradientUnits="userSpaceOnUse" x1="983.439" y1="980.607" x2="55.0944" y2="57.9173">
		<stop class="stop0" offset="0" stop-opacity="1" stop-color="rgb(4,175,56)"/>
		<stop class="stop1" offset="1" stop-opacity="1" stop-color="rgb(11,211,77)"/>
	</linearGradient>
</defs>
<path transform="translate(0,0)" fill="url(#Gradient1)" d="M 170.249 0 L 869.695 0 C 875.682 2.43332 882.133 2.83978 888.476 3.99633 C 896.168 5.42935 903.747 7.4127 911.155 9.93109 C 961.499 27.316 1002.38 64.8059 1024.04 113.463 C 1029.29 125.043 1033.27 137.16 1035.9 149.601 C 1036.83 153.819 1038.75 165.313 1040 168.517 L 1040 871.852 L 1039.69 872.832 C 1035.76 885.366 1034.92 897.448 1030.15 911.424 C 1014.25 956.735 982.087 994.523 939.896 1017.46 C 927.114 1024.38 913.548 1029.74 899.489 1033.43 C 895.258 1034.58 877 1038.83 874.767 1040 L 166.118 1040 C 159.206 1037.06 138.909 1033.28 129.299 1030.06 C 77.8559 1012.87 31.1278 969.222 12.4997 918.041 C 9.23867 909.161 6.55365 900.08 4.46136 890.855 C 3.26401 885.713 2.30193 875.883 0 871.741 L 0 169.189 C 1.49565 165.929 1.91645 161.77 2.50913 158.185 C 13.3685 92.4946 61.4893 31.7852 126.516 10.6115 C 133.925 8.18361 141.466 6.18189 149.104 4.61614 C 155.622 3.32487 164.329 2.41257 170.249 0 z"/>
<path transform="translate(0,0)" fill="rgb(254,254,254)" d="M 507.556 261.423 C 585.55 253.774 663.383 305.388 690.263 377.701 C 693.117 385.378 695.415 392.661 697.624 400.539 C 737.864 404.708 778.754 424.578 807.915 452.454 C 844.169 486.845 865.138 534.325 866.139 584.286 C 867.232 635.731 849.252 684.099 813.185 720.797 C 744.199 790.988 676.709 778.031 589.372 779.452 C 590.096 734.637 588.947 689.516 589.744 644.691 C 607.428 644.458 625.115 644.432 642.8 644.612 C 651.316 644.66 681.679 646.393 686.586 640.282 C 689.241 633.162 685.399 629.362 680.585 624.337 C 659.946 602.792 638.917 581.592 618.11 560.202 C 593.623 535.029 569.298 509.617 544.253 485.006 C 540.897 481.711 537.151 479.206 533.122 476.81 C 506.746 466.126 489.831 490.598 473.233 507.63 L 433.855 547.983 L 383.989 598.993 C 374.833 608.366 365.606 617.649 356.722 627.311 C 346.659 637.439 354.342 643.958 366.019 644.413 C 394.046 645.507 422.694 643.74 450.709 644.817 C 450.399 689.604 450.415 734.392 450.756 779.179 C 379.443 777.745 323.351 789.046 260.287 748.413 C 218.048 721.039 188.365 678.053 177.73 628.855 C 167.369 579.711 176.833 528.463 204.063 486.261 C 227.259 450.608 261.725 423.75 301.964 409.97 C 315.506 405.378 328.881 402.782 342.836 399.806 C 360.49 322.36 429.223 267.272 507.556 261.423 z"/>
</svg>